<?xml version="1.0" encoding="iso-8859-1"?>
<!-- Uploaded to: SVG Repo, www.svgrepo.com, Generator: SVG Repo Mixer Tools -->
<svg version="1.1" id="Layer_1" xmlns="http://www.w3.org/2000/svg" xmlns:xlink="http://www.w3.org/1999/xlink" 
	 viewBox="0 0 512.003 512.003" xml:space="preserve">
<path style="fill:#FFFFFF;" d="M12.45,421.845c-4.568-0.176-8.231-3.84-8.407-8.407v-93.441c0.168-4.576,3.832-8.239,8.407-8.415
	h487.162c4.568,0.184,8.223,3.848,8.391,8.415v94.265c-0.888,4.4-4.744,7.567-9.231,7.583H12.45z"/>
<path style="fill:#AAC1CE;" d="M499.596,315.549c2.368,0.192,4.24,2.08,4.408,4.448v93.593c-0.536,2.472-2.712,4.256-5.24,4.296
	H12.45c-2.368-0.192-4.24-2.08-4.408-4.448v-93.441c0.184-2.352,2.056-4.224,4.408-4.408h487.162 M499.612,307.59H12.45
	c-6.783,0.168-12.239,5.624-12.407,12.407v93.441c0.168,6.783,5.624,12.239,12.407,12.407h486.314
	c6.679-0.032,12.319-4.968,13.239-11.583v-94.265c-0.168-6.783-5.624-12.239-12.407-12.407H499.612z"/>
<g>
	<path style="fill:#E04F5F;" d="M44.408,382.112c3.024,1.816,6.471,2.792,9.999,2.824c5.704,0,9.031-3.016,9.031-7.375
		c0-4-2.304-6.344-8.135-8.583c-7.055-2.496-11.415-6.152-11.415-12.239c0.336-6.863,6.176-12.151,13.039-11.807
		c0.312,0.016,0.624,0.04,0.936,0.08c3.312-0.112,6.591,0.616,9.543,2.12l-1.536,4.544c-2.528-1.368-5.36-2.08-8.231-2.08
		c-5.896,0-8.143,3.52-8.143,6.471c0,4,2.632,6.024,8.583,8.335c7.311,2.824,11.023,6.344,11.023,12.687
		c0,6.663-4.928,12.431-15.127,12.431c-3.848,0.048-7.639-0.904-11.015-2.76L44.408,382.112z"/>
	<path style="fill:#E04F5F;" d="M80.117,374.392c-0.472,5.464,3.576,10.279,9.039,10.759c0.536,0.048,1.064,0.048,1.6,0.008
		c2.944,0.096,5.872-0.456,8.583-1.6l0.96,4c-3.264,1.36-6.783,2.016-10.319,1.92c-7.935,0.496-14.775-5.528-15.271-13.471
		c-0.048-0.72-0.04-1.448,0.024-2.16c-0.928-8.263,5.024-15.711,13.287-16.639c0.416-0.048,0.84-0.08,1.256-0.088
		c7.255,0.136,13.023,6.136,12.879,13.383c-0.008,0.408-0.032,0.816-0.08,1.224c-0.008,0.88-0.072,1.752-0.184,2.624L80.117,374.392
		z M96.644,370.393c0.648-4.368-2.376-8.439-6.743-9.079c-0.36-0.056-0.72-0.08-1.08-0.088c-4.816,0.36-8.559,4.336-8.639,9.167
		H96.644z"/>
	<path style="fill:#E04F5F;" d="M126.265,388.895l-0.448-3.904h-0.184c-2.24,2.976-5.768,4.688-9.487,4.608
		c-4.848,0.384-9.079-3.24-9.463-8.087c-0.024-0.272-0.032-0.544-0.024-0.816c0-7.495,6.663-11.599,18.647-11.527v-0.64
		c0.464-3.504-2-6.719-5.504-7.183c-0.512-0.064-1.032-0.072-1.544-0.016c-2.856,0.008-5.648,0.808-8.079,2.304l-1.28-3.72
		c3.072-1.848,6.607-2.8,10.191-2.752c9.487,0,11.791,6.472,11.791,12.687v11.599c-0.048,2.488,0.128,4.976,0.512,7.431
		L126.265,388.895z M125.465,373.064c-6.16-0.128-13.143,0.96-13.143,6.983c-0.224,2.744,1.824,5.16,4.568,5.376
		c0.248,0.024,0.496,0.024,0.752,0.008c3.36,0.096,6.4-2.008,7.503-5.184c0.2-0.584,0.304-1.184,0.32-1.8V373.064z"/>
	<path style="fill:#E04F5F;" d="M140.032,367.561c0-3.656-0.064-6.799-0.256-9.679h4.936l0.184,6.088h0.256
		c1.088-3.888,4.552-6.631,8.583-6.791c0.536-0.008,1.08,0.056,1.6,0.184v5.32c-0.632-0.136-1.272-0.192-1.92-0.184
		c-3.984,0.16-7.223,3.264-7.559,7.239c-0.152,0.864-0.24,1.744-0.248,2.624v16.527h-5.6L140.032,367.561z"/>
	<path style="fill:#E04F5F;" d="M182.429,387.743c-2.8,1.248-5.84,1.864-8.903,1.8c-8.127,0.416-15.055-5.832-15.471-13.959
		c-0.032-0.624-0.024-1.248,0.024-1.872c-0.408-8.695,6.312-16.071,14.999-16.479c0.552-0.024,1.104-0.024,1.664,0.008
		c2.688-0.032,5.352,0.52,7.815,1.6l-1.28,4.36c-2.008-1.056-4.264-1.568-6.527-1.48c-6.447,0.424-11.327,5.992-10.903,12.431
		c0.376,5.784,4.936,10.423,10.711,10.895c2.392,0.008,4.76-0.512,6.919-1.536L182.429,387.743z"/>
	<path style="fill:#E04F5F;" d="M189.052,343.403h5.64v19.35h0.128c0.936-1.68,2.32-3.064,4-4c1.752-1.032,3.736-1.584,5.768-1.6
		c4.168,0,10.831,2.56,10.831,13.263v18.455h-5.64v-17.783c0-5-1.856-9.223-7.199-9.223c-3.456,0.064-6.495,2.312-7.559,5.6
		c-0.304,0.864-0.44,1.784-0.384,2.696v18.711h-5.64L189.052,343.403z"/>
</g>
<g>
	<path style="fill:#25B6D2;" d="M437.649,347.426c8.207,0,14.855,6.647,14.855,14.855s-6.647,14.855-14.855,14.855
		s-14.855-6.647-14.855-14.855l0,0C422.81,354.082,429.45,347.434,437.649,347.426 M437.649,339.427
		c-12.623,0-22.854,10.231-22.854,22.854c0,12.623,10.231,22.854,22.854,22.854c12.623,0,22.854-10.231,22.854-22.854l0,0
		C460.503,349.658,450.272,339.427,437.649,339.427z"/>
	
		<rect x="457.329" y="375.413" transform="matrix(0.7073 -0.7069 0.7069 0.7073 -138.0224 439.1721)" style="fill:#25B6D2;" width="7.999" height="21.694"/>
</g>
<path style="fill:#415E72;" d="M95.236,203.206c-11.439,4.104-23.478,6.248-35.629,6.352c-15.927,0.904-31.55-4.608-43.381-15.311
	C5.267,182.599-0.565,167.041,0.043,151.058c0.168-34.597,23.926-59.915,62.811-59.915c9.911-0.232,19.758,1.592,28.926,5.352
	l-3.608,12.223c-8.087-3.512-16.847-5.216-25.662-4.984c-23.886-1.872-44.773,15.975-46.644,39.869
	c-0.176,2.264-0.176,4.544,0,6.807c0,29.422,17.743,46.812,44.757,46.812c6.807,0.376,13.623-0.68,19.998-3.088v-34.637H57.015
	v-12.071h38.221V203.206z"/>
<path style="fill:#25B6D2;" d="M193.908,166.025c0,30.822-21.35,44.237-41.493,44.237c-22.55,0-39.925-16.511-39.925-42.869
	c0-27.87,18.231-44.237,41.293-44.237C177.741,123.156,193.908,140.555,193.908,166.025z M127.809,166.881
	c0,18.255,10.503,31.997,25.294,31.997c14.479,0,25.318-13.599,25.318-32.365c0-14.111-7.063-31.997-24.982-31.997
	S127.809,151.058,127.809,166.881z"/>
<path style="fill:#415E72;" d="M288.477,166.025c0,30.822-21.35,44.237-41.493,44.237c-22.55,0-39.925-16.511-39.925-42.869
	c0-27.87,18.231-44.237,41.293-44.237C272.302,123.156,288.477,140.555,288.477,166.025z M222.378,166.881
	c0,18.255,10.503,31.997,25.294,31.997c14.479,0,25.318-13.599,25.318-32.365c0-14.111-7.063-31.997-24.982-31.997
	S222.37,151.058,222.378,166.881L222.378,166.881z"/>
<path style="fill:#E04F5F;" d="M379.406,125.052c-0.344,6.04-0.688,12.799-0.688,22.918v48.356c0,19.111-3.8,30.822-11.879,38.029
	c-8.503,6.991-19.311,10.551-30.302,9.983c-9.695,0.24-19.27-2.128-27.726-6.871l3.8-11.535c7.399,4.368,15.847,6.623,24.438,6.527
	c15.479,0,26.846-8.095,26.846-29.078v-9.287h-0.344c-5.688,9.063-15.807,14.375-26.494,13.911
	c-20.662,0-35.453-17.599-35.453-40.637c0-28.214,18.399-44.237,37.517-44.237c10.735-0.632,20.87,5.016,25.982,14.479h0.344
	l0.688-12.591L379.406,125.052z M363.727,157.929c0.088-2.32-0.2-4.64-0.856-6.871c-2.632-9.503-11.311-16.063-21.174-15.999
	c-14.455,0-24.798,12.223-24.798,31.502c0,16.367,8.271,29.958,24.614,29.958c9.623-0.056,18.111-6.304,21.006-15.479
	c0.816-2.624,1.224-5.352,1.2-8.095L363.727,157.929z"/>
<path style="fill:#415E72;" d="M403.892,86.159h15.199v122.214h-15.199V86.159z"/>
<path style="fill:#25B6D2;" d="M452.968,169.456c-1.288,14.687,9.575,27.638,24.262,28.918c1.432,0.128,2.864,0.136,4.296,0.032
	c7.911,0.248,15.791-1.216,23.086-4.296l2.576,10.847c-8.775,3.648-18.223,5.4-27.726,5.152c-25.638,0-40.949-16.855-40.949-42.005
	s14.799-44.924,39.061-44.924c27.198,0,34.397,23.926,34.397,39.261c-0.024,2.352-0.2,4.704-0.512,7.039L452.968,169.456z
	 M497.38,158.609c0.168-9.599-3.952-24.614-21.006-24.614c-15.311,0-22.03,14.135-23.198,24.614H497.38z"/>
</svg>